<svg width="71" height="71" viewBox="0 0 71 71" fill="none" xmlns="http://www.w3.org/2000/svg">
<path fill-rule="evenodd" clip-rule="evenodd" d="M35.5 0C15.9189 0 0 15.9189 0 35.5C0 55.0811 15.9189 71 35.5 71C55.0811 71 71 55.0811 71 35.5C71 15.9189 55.0811 0 35.5 0ZM34 65.998C18.0059 65.998 5.00195 50.4912 5.00195 34.498C5.00195 18.5039 20.5088 5.5 36.502 5.5C52.4961 5.5 65.5 21.0059 65.5 37C65.5 52.9941 49.9941 65.998 34 65.998ZM43.2725 27.2041C45.625 27.2041 47.5322 25.2969 47.5322 22.9443C47.5322 20.5918 45.625 18.6846 43.2725 18.6846C40.9199 18.6846 39.0127 20.5918 39.0127 22.9443C39.0127 25.2969 40.9199 27.2041 43.2725 27.2041ZM43.123 33.8555C44.0947 32.5107 46.1123 32.5107 47.084 33.8555L53.7354 43.1982C54.4814 44.1768 54.2969 45.416 53.582 46.2109C53.1504 46.6914 52.5244 47.0098 51.793 47.0098H19.1328C17.1895 47.0098 16.0684 44.7676 17.1895 43.1982L29.1475 26.3076C30.1191 24.9619 32.1367 24.9619 33.1084 26.3076L40.1338 36.0977C40.4326 36.5459 41.1797 36.5459 41.4785 36.0977L43.123 33.8555Z" fill="#007FA3"/>
</svg>
